<svg xmlns="http://www.w3.org/2000/svg" xmlns:xlink="http://www.w3.org/1999/xlink" width="500" zoomAndPan="magnify" viewBox="0 0 375 374.999991" height="500" preserveAspectRatio="xMidYMid meet" version="1.0"><defs><g/><clipPath id="1e68570ba4"><path d="M 80.566406 79.09375 L 169.433594 79.09375 L 169.433594 168.9375 L 80.566406 168.9375 Z M 80.566406 79.09375 " clip-rule="nonzero"/></clipPath><clipPath id="89a91890ce"><path d="M 156.25 92.28125 C 173.585938 109.886719 173.585938 138.152344 156.25 155.761719 C 148.007812 164.132812 136.75 168.847656 125 168.847656 C 113.25 168.847656 101.992188 164.132812 93.75 155.761719 C 76.414062 138.152344 76.414062 109.886719 93.75 92.28125 C 101.992188 83.90625 113.25 79.191406 125 79.191406 C 136.75 79.191406 148.007812 83.90625 156.25 92.28125 Z M 156.25 92.28125 " clip-rule="nonzero"/></clipPath><clipPath id="15fa2ba957"><path d="M 80.078125 79 L 169.914062 79 L 169.914062 169 L 80.078125 169 Z M 80.078125 79 " clip-rule="nonzero"/></clipPath><clipPath id="d79e54ac93"><path d="M 156.242188 92.277344 C 173.578125 109.882812 173.578125 138.144531 156.242188 155.75 C 148 164.121094 136.746094 168.835938 124.996094 168.835938 C 113.246094 168.835938 101.992188 164.121094 93.75 155.75 C 76.414062 138.144531 76.414062 109.882812 93.75 92.277344 C 101.992188 83.90625 113.246094 79.191406 124.996094 79.191406 C 136.746094 79.191406 148 83.90625 156.242188 92.277344 Z M 156.242188 92.277344 " clip-rule="nonzero"/></clipPath><clipPath id="f3f9f1dbf8"><path d="M 18.066406 142.574219 L 106.933594 142.574219 L 106.933594 232.417969 L 18.066406 232.417969 Z M 18.066406 142.574219 " clip-rule="nonzero"/></clipPath><clipPath id="4328ad971a"><path d="M 93.75 155.761719 C 111.085938 173.367188 111.085938 201.632812 93.75 219.238281 C 85.507812 227.613281 74.25 232.328125 62.5 232.328125 C 50.75 232.328125 39.492188 227.613281 31.25 219.238281 C 13.914062 201.632812 13.914062 173.367188 31.25 155.761719 C 39.492188 147.386719 50.75 142.671875 62.5 142.671875 C 74.25 142.671875 85.507812 147.386719 93.75 155.761719 Z M 93.75 155.761719 " clip-rule="nonzero"/></clipPath><clipPath id="7fcdb96b57"><path d="M 18 142 L 107 142 L 107 233 L 18 233 Z M 18 142 " clip-rule="nonzero"/></clipPath><clipPath id="a073d0963e"><path d="M 93.742188 155.757812 C 111.078125 173.363281 111.078125 201.625 93.742188 219.230469 C 85.5 227.601562 74.246094 232.316406 62.496094 232.316406 C 50.746094 232.316406 39.492188 227.601562 31.25 219.230469 C 13.914062 201.625 13.914062 173.363281 31.25 155.757812 C 39.492188 147.386719 50.746094 142.671875 62.496094 142.671875 C 74.246094 142.671875 85.5 147.386719 93.742188 155.757812 Z M 93.742188 155.757812 " clip-rule="nonzero"/></clipPath><clipPath id="ff5d0974ba"><path d="M 80.566406 206.054688 L 169.433594 206.054688 L 169.433594 295.898438 L 80.566406 295.898438 Z M 80.566406 206.054688 " clip-rule="nonzero"/></clipPath><clipPath id="25bd017012"><path d="M 156.25 219.238281 C 173.585938 236.847656 173.585938 265.113281 156.25 282.71875 C 148.007812 291.09375 136.75 295.808594 125 295.808594 C 113.25 295.808594 101.992188 291.09375 93.75 282.71875 C 76.414062 265.113281 76.414062 236.847656 93.75 219.238281 C 101.992188 210.867188 113.25 206.152344 125 206.152344 C 136.75 206.152344 148.007812 210.867188 156.25 219.238281 Z M 156.25 219.238281 " clip-rule="nonzero"/></clipPath><clipPath id="f9d28501f7"><path d="M 80.078125 206 L 169.914062 206 L 169.914062 296 L 80.078125 296 Z M 80.078125 206 " clip-rule="nonzero"/></clipPath><clipPath id="6130bf068b"><path d="M 156.242188 219.238281 C 173.578125 236.84375 173.578125 265.105469 156.242188 282.710938 C 148 291.082031 136.746094 295.796875 124.996094 295.796875 C 113.246094 295.796875 101.992188 291.082031 93.75 282.710938 C 76.414062 265.105469 76.414062 236.84375 93.75 219.238281 C 101.992188 210.867188 113.246094 206.152344 124.996094 206.152344 C 136.746094 206.152344 148 210.867188 156.242188 219.238281 Z M 156.242188 219.238281 " clip-rule="nonzero"/></clipPath><clipPath id="132188afc3"><path d="M 205.566406 79.09375 L 294.433594 79.09375 L 294.433594 168.9375 L 205.566406 168.9375 Z M 205.566406 79.09375 " clip-rule="nonzero"/></clipPath><clipPath id="db1994c637"><path d="M 281.25 92.28125 C 298.585938 109.886719 298.585938 138.152344 281.25 155.761719 C 273.007812 164.132812 261.75 168.847656 250 168.847656 C 238.25 168.847656 226.992188 164.132812 218.75 155.761719 C 201.414062 138.152344 201.414062 109.886719 218.75 92.28125 C 226.992188 83.90625 238.25 79.191406 250 79.191406 C 261.75 79.191406 273.007812 83.90625 281.25 92.28125 Z M 281.25 92.28125 " clip-rule="nonzero"/></clipPath><clipPath id="09b082f366"><path d="M 205.078125 79 L 294.914062 79 L 294.914062 169 L 205.078125 169 Z M 205.078125 79 " clip-rule="nonzero"/></clipPath><clipPath id="746df81e35"><path d="M 281.242188 92.277344 C 298.578125 109.882812 298.578125 138.144531 281.242188 155.75 C 273 164.121094 261.746094 168.835938 249.996094 168.835938 C 238.246094 168.835938 226.992188 164.121094 218.75 155.75 C 201.414062 138.144531 201.414062 109.882812 218.75 92.277344 C 226.992188 83.90625 238.246094 79.191406 249.996094 79.191406 C 261.746094 79.191406 273 83.90625 281.242188 92.277344 Z M 281.242188 92.277344 " clip-rule="nonzero"/></clipPath><clipPath id="69c827de4e"><path d="M 268.066406 142.574219 L 356.933594 142.574219 L 356.933594 232.417969 L 268.066406 232.417969 Z M 268.066406 142.574219 " clip-rule="nonzero"/></clipPath><clipPath id="f8544f6ba7"><path d="M 343.75 155.761719 C 361.085938 173.367188 361.085938 201.632812 343.75 219.238281 C 335.507812 227.613281 324.25 232.328125 312.5 232.328125 C 300.75 232.328125 289.492188 227.613281 281.25 219.238281 C 263.914062 201.632812 263.914062 173.367188 281.25 155.761719 C 289.492188 147.386719 300.75 142.671875 312.5 142.671875 C 324.25 142.671875 335.507812 147.386719 343.75 155.761719 Z M 343.75 155.761719 " clip-rule="nonzero"/></clipPath><clipPath id="0bd5e08ae6"><path d="M 268 142 L 357 142 L 357 233 L 268 233 Z M 268 142 " clip-rule="nonzero"/></clipPath><clipPath id="1aa7956b40"><path d="M 343.742188 155.757812 C 361.078125 173.363281 361.078125 201.625 343.742188 219.230469 C 335.5 227.601562 324.246094 232.316406 312.496094 232.316406 C 300.746094 232.316406 289.492188 227.601562 281.25 219.230469 C 263.914062 201.625 263.914062 173.363281 281.25 155.757812 C 289.492188 147.386719 300.746094 142.671875 312.496094 142.671875 C 324.246094 142.671875 335.5 147.386719 343.742188 155.757812 Z M 343.742188 155.757812 " clip-rule="nonzero"/></clipPath><clipPath id="4c8bd1f287"><path d="M 205.566406 206.054688 L 294.433594 206.054688 L 294.433594 295.898438 L 205.566406 295.898438 Z M 205.566406 206.054688 " clip-rule="nonzero"/></clipPath><clipPath id="decbb3b108"><path d="M 281.25 219.238281 C 298.585938 236.847656 298.585938 265.113281 281.25 282.71875 C 273.007812 291.09375 261.75 295.808594 250 295.808594 C 238.25 295.808594 226.992188 291.09375 218.75 282.71875 C 201.414062 265.113281 201.414062 236.847656 218.75 219.238281 C 226.992188 210.867188 238.25 206.152344 250 206.152344 C 261.75 206.152344 273.007812 210.867188 281.25 219.238281 Z M 281.25 219.238281 " clip-rule="nonzero"/></clipPath><clipPath id="3aa807ca41"><path d="M 205.078125 206 L 294.914062 206 L 294.914062 296 L 205.078125 296 Z M 205.078125 206 " clip-rule="nonzero"/></clipPath><clipPath id="e2fab3de6a"><path d="M 281.242188 219.238281 C 298.578125 236.84375 298.578125 265.105469 281.242188 282.710938 C 273 291.082031 261.746094 295.796875 249.996094 295.796875 C 238.246094 295.796875 226.992188 291.082031 218.75 282.710938 C 201.414062 265.105469 201.414062 236.84375 218.75 219.238281 C 226.992188 210.867188 238.246094 206.152344 249.996094 206.152344 C 261.746094 206.152344 273 210.867188 281.242188 219.238281 Z M 281.242188 219.238281 " clip-rule="nonzero"/></clipPath></defs><g clip-path="url(#1e68570ba4)"><g clip-path="url(#89a91890ce)"><path fill="#fcfffe" d="M 62.5 60.539062 L 187.5 60.539062 L 187.5 187.492188 L 62.5 187.492188 Z M 62.5 60.539062 " fill-opacity="1" fill-rule="nonzero"/></g></g><g clip-path="url(#15fa2ba957)"><g clip-path="url(#d79e54ac93)"><path stroke-linecap="butt" transform="matrix(0.75, 0, 0, 0.75, 62.501727, 60.539343)" fill="none" stroke-linejoin="miter" d="M 124.987289 42.317337 C 148.101874 65.791297 148.101874 103.473591 124.987289 126.947551 C 113.997705 138.10901 98.992496 144.395469 83.325828 144.395469 C 67.65916 144.395469 52.653951 138.10901 41.664367 126.947551 C 18.549782 103.473591 18.549782 65.791297 41.664367 42.317337 C 52.653951 31.155878 67.65916 24.869419 83.325828 24.869419 C 98.992496 24.869419 113.997705 31.155878 124.987289 42.317337 Z M 124.987289 42.317337 " stroke="#000000" stroke-width="26" stroke-opacity="1" stroke-miterlimit="4"/></g></g><g clip-path="url(#f3f9f1dbf8)"><g clip-path="url(#4328ad971a)"><path fill="#fcfffe" d="M 0 124.019531 L 125 124.019531 L 125 250.972656 L 0 250.972656 Z M 0 124.019531 " fill-opacity="1" fill-rule="nonzero"/></g></g><g clip-path="url(#7fcdb96b57)"><g clip-path="url(#a073d0963e)"><path stroke-linecap="butt" transform="matrix(0.75, 0, 0, 0.75, 0.00172565, 124.01967)" fill="none" stroke-linejoin="miter" d="M 124.987291 42.317526 C 148.101876 65.791486 148.101876 103.47378 124.987291 126.94774 C 113.997707 138.109199 98.992497 144.395657 83.32583 144.395657 C 67.659162 144.395657 52.653953 138.109199 41.664369 126.94774 C 18.549784 103.47378 18.549784 65.791486 41.664369 42.317526 C 52.653953 31.156067 67.659162 24.869608 83.32583 24.869608 C 98.992497 24.869608 113.997707 31.156067 124.987291 42.317526 Z M 124.987291 42.317526 " stroke="#ff914d" stroke-width="26" stroke-opacity="1" stroke-miterlimit="4"/></g></g><g clip-path="url(#ff5d0974ba)"><g clip-path="url(#25bd017012)"><path fill="#fcfffe" d="M 62.5 187.5 L 187.5 187.5 L 187.5 314.453125 L 62.5 314.453125 Z M 62.5 187.5 " fill-opacity="1" fill-rule="nonzero"/></g></g><g clip-path="url(#f9d28501f7)"><g clip-path="url(#6130bf068b)"><path stroke-linecap="butt" transform="matrix(0.75, 0, 0, 0.75, 62.501727, 187.499988)" fill="none" stroke-linejoin="miter" d="M 124.987289 42.317728 C 148.101874 65.791687 148.101874 103.473982 124.987289 126.947941 C 113.997705 138.1094 98.992496 144.395859 83.325828 144.395859 C 67.65916 144.395859 52.653951 138.1094 41.664367 126.947941 C 18.549782 103.473982 18.549782 65.791687 41.664367 42.317728 C 52.653951 31.156268 67.65916 24.86981 83.325828 24.86981 C 98.992496 24.86981 113.997705 31.156268 124.987289 42.317728 Z M 124.987289 42.317728 " stroke="#8f6e8b" stroke-width="26" stroke-opacity="1" stroke-miterlimit="4"/></g></g><g clip-path="url(#132188afc3)"><g clip-path="url(#db1994c637)"><path fill="#fcfffe" d="M 187.5 60.539062 L 312.5 60.539062 L 312.5 187.492188 L 187.5 187.492188 Z M 187.5 60.539062 " fill-opacity="1" fill-rule="nonzero"/></g></g><g clip-path="url(#09b082f366)"><g clip-path="url(#746df81e35)"><path stroke-linecap="butt" transform="matrix(0.75, 0, 0, 0.75, 187.501706, 60.539343)" fill="none" stroke-linejoin="miter" d="M 124.987317 42.317337 C 148.101902 65.791297 148.101902 103.473591 124.987317 126.947551 C 113.997733 138.10901 98.992524 144.395469 83.325856 144.395469 C 67.659188 144.395469 52.653979 138.10901 41.664395 126.947551 C 18.54981 103.473591 18.54981 65.791297 41.664395 42.317337 C 52.653979 31.155878 67.659188 24.869419 83.325856 24.869419 C 98.992524 24.869419 113.997733 31.155878 124.987317 42.317337 Z M 124.987317 42.317337 " stroke="#fc6467" stroke-width="26" stroke-opacity="1" stroke-miterlimit="4"/></g></g><g clip-path="url(#69c827de4e)"><g clip-path="url(#f8544f6ba7)"><path fill="#fcfffe" d="M 250 124.019531 L 375 124.019531 L 375 250.972656 L 250 250.972656 Z M 250 124.019531 " fill-opacity="1" fill-rule="nonzero"/></g></g><g clip-path="url(#0bd5e08ae6)"><g clip-path="url(#1aa7956b40)"><path stroke-linecap="butt" transform="matrix(0.75, 0, 0, 0.75, 250.001736, 124.01967)" fill="none" stroke-linejoin="miter" d="M 124.987277 42.317526 C 148.101862 65.791486 148.101862 103.47378 124.987277 126.94774 C 113.997693 138.109199 98.992483 144.395657 83.325816 144.395657 C 67.659148 144.395657 52.653939 138.109199 41.664355 126.94774 C 18.54977 103.47378 18.54977 65.791486 41.664355 42.317526 C 52.653939 31.156067 67.659148 24.869608 83.325816 24.869608 C 98.992483 24.869608 113.997693 31.156067 124.987277 42.317526 Z M 124.987277 42.317526 " stroke="#058ef5" stroke-width="26" stroke-opacity="1" stroke-miterlimit="4"/></g></g><g clip-path="url(#4c8bd1f287)"><g clip-path="url(#decbb3b108)"><path fill="#fcfffe" d="M 187.5 187.5 L 312.5 187.5 L 312.5 314.453125 L 187.5 314.453125 Z M 187.5 187.5 " fill-opacity="1" fill-rule="nonzero"/></g></g><g clip-path="url(#3aa807ca41)"><g clip-path="url(#e2fab3de6a)"><path stroke-linecap="butt" transform="matrix(0.75, 0, 0, 0.75, 187.501706, 187.499988)" fill="none" stroke-linejoin="miter" d="M 124.987317 42.317728 C 148.101902 65.791687 148.101902 103.473982 124.987317 126.947941 C 113.997733 138.1094 98.992524 144.395859 83.325856 144.395859 C 67.659188 144.395859 52.653979 138.1094 41.664395 126.947941 C 18.54981 103.473982 18.54981 65.791687 41.664395 42.317728 C 52.653979 31.156268 67.659188 24.86981 83.325856 24.86981 C 98.992524 24.86981 113.997733 31.156268 124.987317 42.317728 Z M 124.987317 42.317728 " stroke="#ab6176" stroke-width="26" stroke-opacity="1" stroke-miterlimit="4"/></g></g><g fill="#b23dd4" fill-opacity="1"><g transform="translate(120.691403, 198.100007)"><g><path d="M 19.34375 0 L 14.421875 -19.203125 L 15.640625 -23.828125 L 21.125 -23.828125 L 27.171875 0 Z M -0.625 0 L 3.328125 -15.3125 L 7.265625 0 Z M 9.3125 0 L 4.390625 -19.203125 L 5.609375 -23.828125 L 11.09375 -23.828125 L 17.15625 0 Z M 9.3125 0 "/></g></g><g transform="translate(147.294428, 198.100007)"><g><path d="M 9.171875 0 L 9.171875 -12.15625 C 9.171875 -13.519531 9.019531 -14.523438 8.71875 -15.171875 C 8.425781 -15.828125 7.90625 -16.414062 7.15625 -16.9375 C 7.84375 -17.050781 8.410156 -17.128906 8.859375 -17.171875 C 9.316406 -17.222656 9.707031 -17.25 10.03125 -17.25 C 11.90625 -17.25 13.296875 -16.726562 14.203125 -15.6875 C 15.117188 -14.65625 15.578125 -13.078125 15.578125 -10.953125 L 15.578125 0 Z M 1.21875 -13.59375 C 1.21875 -14.507812 1.546875 -15.300781 2.203125 -15.96875 C 2.867188 -16.632812 3.664062 -16.96875 4.59375 -16.96875 C 5.507812 -16.96875 6.296875 -16.632812 6.953125 -15.96875 C 7.617188 -15.300781 7.953125 -14.507812 7.953125 -13.59375 C 7.953125 -12.664062 7.625 -11.867188 6.96875 -11.203125 C 6.3125 -10.535156 5.519531 -10.203125 4.59375 -10.203125 C 3.65625 -10.203125 2.859375 -10.535156 2.203125 -11.203125 C 1.546875 -11.867188 1.21875 -12.664062 1.21875 -13.59375 Z M 7.1875 0 C 7.09375 0.0078125 6.984375 0.015625 6.859375 0.015625 C 6.734375 0.0234375 6.554688 0.03125 6.328125 0.03125 C 4.410156 0.03125 2.941406 -0.375 1.921875 -1.1875 C 0.910156 -2.007812 0.40625 -3.1875 0.40625 -4.71875 C 0.40625 -6.28125 0.90625 -7.46875 1.90625 -8.28125 C 2.914062 -9.09375 4.378906 -9.5 6.296875 -9.5 C 6.546875 -9.5 6.726562 -9.492188 6.84375 -9.484375 C 6.96875 -9.484375 7.082031 -9.476562 7.1875 -9.46875 Z M 7.1875 0 "/></g></g><g transform="translate(164.261713, 198.100007)"><g><path d="M 9.703125 -23.6875 L 16.28125 -23.6875 L 16.28125 0 L 9.703125 0 Z M 7.84375 -16.96875 L 7.84375 0 C 5.488281 -0.238281 3.671875 -1.09375 2.390625 -2.5625 C 1.109375 -4.039062 0.46875 -6.023438 0.46875 -8.515625 C 0.46875 -10.960938 1.113281 -12.925781 2.40625 -14.40625 C 3.695312 -15.894531 5.507812 -16.75 7.84375 -16.96875 Z M 7.84375 -16.96875 "/></g></g><g transform="translate(181.454582, 198.100007)"><g><path d="M 7.5 0.296875 L 7.359375 0.296875 C 4.960938 0.296875 3.289062 -0.171875 2.34375 -1.109375 C 1.394531 -2.046875 0.921875 -3.742188 0.921875 -6.203125 L 0.921875 -16.96875 L 7.5 -16.96875 Z M 9.3125 0.296875 L 9.3125 -16.96875 L 15.875 -16.96875 L 15.875 -6.203125 C 15.875 -3.742188 15.394531 -2.046875 14.4375 -1.109375 C 13.488281 -0.171875 11.820312 0.296875 9.4375 0.296875 Z M 9.3125 0.296875 "/></g></g><g transform="translate(198.24462, 198.100007)"><g><path d="M 11.546875 -23.8125 C 11.691406 -23.832031 11.84375 -23.84375 12 -23.84375 C 12.15625 -23.851562 12.378906 -23.859375 12.671875 -23.859375 C 15.265625 -23.859375 17.175781 -23.289062 18.40625 -22.15625 C 19.632812 -21.03125 20.25 -19.289062 20.25 -16.9375 C 20.25 -14.5625 19.628906 -12.800781 18.390625 -11.65625 C 17.160156 -10.519531 15.253906 -9.953125 12.671875 -9.953125 C 12.378906 -9.953125 12.15625 -9.953125 12 -9.953125 C 11.84375 -9.960938 11.691406 -9.976562 11.546875 -10 Z M 1.0625 0 L 1.0625 -23.828125 L 9.546875 -23.828125 L 9.546875 0 Z M 1.0625 0 "/></g></g><g transform="translate(218.869619, 198.100007)"><g><path d="M 9.171875 0 L 9.171875 -12.15625 C 9.171875 -13.519531 9.019531 -14.523438 8.71875 -15.171875 C 8.425781 -15.828125 7.90625 -16.414062 7.15625 -16.9375 C 7.84375 -17.050781 8.410156 -17.128906 8.859375 -17.171875 C 9.316406 -17.222656 9.707031 -17.25 10.03125 -17.25 C 11.90625 -17.25 13.296875 -16.726562 14.203125 -15.6875 C 15.117188 -14.65625 15.578125 -13.078125 15.578125 -10.953125 L 15.578125 0 Z M 1.21875 -13.59375 C 1.21875 -14.507812 1.546875 -15.300781 2.203125 -15.96875 C 2.867188 -16.632812 3.664062 -16.96875 4.59375 -16.96875 C 5.507812 -16.96875 6.296875 -16.632812 6.953125 -15.96875 C 7.617188 -15.300781 7.953125 -14.507812 7.953125 -13.59375 C 7.953125 -12.664062 7.625 -11.867188 6.96875 -11.203125 C 6.3125 -10.535156 5.519531 -10.203125 4.59375 -10.203125 C 3.65625 -10.203125 2.859375 -10.535156 2.203125 -11.203125 C 1.546875 -11.867188 1.21875 -12.664062 1.21875 -13.59375 Z M 7.1875 0 C 7.09375 0.0078125 6.984375 0.015625 6.859375 0.015625 C 6.734375 0.0234375 6.554688 0.03125 6.328125 0.03125 C 4.410156 0.03125 2.941406 -0.375 1.921875 -1.1875 C 0.910156 -2.007812 0.40625 -3.1875 0.40625 -4.71875 C 0.40625 -6.28125 0.90625 -7.46875 1.90625 -8.28125 C 2.914062 -9.09375 4.378906 -9.5 6.296875 -9.5 C 6.546875 -9.5 6.726562 -9.492188 6.84375 -9.484375 C 6.96875 -9.484375 7.082031 -9.476562 7.1875 -9.46875 Z M 7.1875 0 "/></g></g><g transform="translate(235.836903, 198.100007)"><g><path d="M 13 -6.640625 L 8.65625 -16.96875 L 17.5625 -16.96875 Z M 11.96875 -4.421875 L 11.96875 6.734375 L 5.421875 6.734375 L 5.421875 -3.0625 L -0.625 -16.96875 L 6.734375 -16.96875 Z M 11.96875 -4.421875 "/></g></g></g></svg>