<svg xmlns="http://www.w3.org/2000/svg" xmlns:xlink="http://www.w3.org/1999/xlink" width="500" zoomAndPan="magnify" viewBox="0 0 375 374.999991" height="500" preserveAspectRatio="xMidYMid meet" version="1.0"><defs><clipPath id="402f7cf0bd"><path d="M 71.289062 69.816406 L 178.710938 69.816406 L 178.710938 178.214844 L 71.289062 178.214844 Z M 71.289062 69.816406 " clip-rule="nonzero"/></clipPath><clipPath id="845ceaea24"><path d="M 140.785156 76.574219 L 171.714844 107.988281 C 180.472656 116.882812 180.472656 131.15625 171.714844 140.054688 L 140.785156 171.464844 C 136.621094 175.695312 130.933594 178.078125 125 178.078125 C 119.066406 178.078125 113.378906 175.695312 109.214844 171.464844 L 78.285156 140.054688 C 69.527344 131.15625 69.527344 116.882812 78.285156 107.988281 L 109.214844 76.574219 C 113.378906 72.34375 119.066406 69.960938 125 69.960938 C 130.933594 69.960938 136.621094 72.34375 140.785156 76.574219 Z M 140.785156 76.574219 " clip-rule="nonzero"/></clipPath><clipPath id="662af78964"><path d="M 9 133.296875 L 116 133.296875 L 116 241.695312 L 9 241.695312 Z M 9 133.296875 " clip-rule="nonzero"/></clipPath><clipPath id="63388819a4"><path d="M 78.285156 140.054688 L 109.214844 171.464844 C 117.972656 180.363281 117.972656 194.636719 109.214844 203.53125 L 78.285156 234.945312 C 74.121094 239.175781 68.433594 241.558594 62.5 241.558594 C 56.566406 241.558594 50.878906 239.175781 46.714844 234.945312 L 15.785156 203.53125 C 7.027344 194.636719 7.027344 180.363281 15.785156 171.464844 L 46.714844 140.054688 C 50.878906 135.824219 56.566406 133.441406 62.5 133.441406 C 68.433594 133.441406 74.121094 135.824219 78.285156 140.054688 Z M 78.285156 140.054688 " clip-rule="nonzero"/></clipPath><clipPath id="c0b881b291"><path d="M 71.289062 196.777344 L 178.710938 196.777344 L 178.710938 305.175781 L 71.289062 305.175781 Z M 71.289062 196.777344 " clip-rule="nonzero"/></clipPath><clipPath id="836f0fcf2e"><path d="M 140.785156 203.535156 L 171.714844 234.945312 C 180.472656 243.84375 180.472656 258.117188 171.714844 267.011719 L 140.785156 298.425781 C 136.621094 302.65625 130.933594 305.039062 125 305.039062 C 119.066406 305.039062 113.378906 302.65625 109.214844 298.425781 L 78.285156 267.011719 C 69.527344 258.117188 69.527344 243.84375 78.285156 234.945312 L 109.214844 203.535156 C 113.378906 199.304688 119.066406 196.921875 125 196.921875 C 130.933594 196.921875 136.621094 199.304688 140.785156 203.535156 Z M 140.785156 203.535156 " clip-rule="nonzero"/></clipPath><clipPath id="975d7da1d2"><path d="M 196.289062 69.816406 L 303.710938 69.816406 L 303.710938 178.214844 L 196.289062 178.214844 Z M 196.289062 69.816406 " clip-rule="nonzero"/></clipPath><clipPath id="fa2aa1e7fe"><path d="M 265.785156 76.574219 L 296.714844 107.988281 C 305.472656 116.882812 305.472656 131.15625 296.714844 140.054688 L 265.785156 171.464844 C 261.621094 175.695312 255.933594 178.078125 250 178.078125 C 244.066406 178.078125 238.378906 175.695312 234.214844 171.464844 L 203.285156 140.054688 C 194.527344 131.15625 194.527344 116.882812 203.285156 107.988281 L 234.214844 76.574219 C 238.378906 72.34375 244.066406 69.960938 250 69.960938 C 255.933594 69.960938 261.621094 72.34375 265.785156 76.574219 Z M 265.785156 76.574219 " clip-rule="nonzero"/></clipPath><clipPath id="0cbf515392"><path d="M 134 133.296875 L 241 133.296875 L 241 241.695312 L 134 241.695312 Z M 134 133.296875 " clip-rule="nonzero"/></clipPath><clipPath id="6af47a9c47"><path d="M 203.285156 140.054688 L 234.214844 171.464844 C 242.972656 180.363281 242.972656 194.636719 234.214844 203.53125 L 203.285156 234.945312 C 199.121094 239.175781 193.433594 241.558594 187.5 241.558594 C 181.566406 241.558594 175.878906 239.175781 171.714844 234.945312 L 140.785156 203.53125 C 132.027344 194.636719 132.027344 180.363281 140.785156 171.464844 L 171.714844 140.054688 C 175.878906 135.824219 181.566406 133.441406 187.5 133.441406 C 193.433594 133.441406 199.121094 135.824219 203.285156 140.054688 Z M 203.285156 140.054688 " clip-rule="nonzero"/></clipPath><clipPath id="adda8b0e41"><path d="M 134 133 L 241 133 L 241 242 L 134 242 Z M 134 133 " clip-rule="nonzero"/></clipPath><clipPath id="68dc31e522"><path d="M 203.28125 140.050781 L 234.207031 171.460938 C 242.964844 180.355469 242.964844 194.632812 234.207031 203.527344 L 203.28125 234.9375 C 199.117188 239.164062 193.429688 241.546875 187.496094 241.546875 C 181.5625 241.546875 175.875 239.164062 171.710938 234.9375 L 140.785156 203.527344 C 132.027344 194.632812 132.027344 180.355469 140.785156 171.460938 L 171.710938 140.050781 C 175.875 135.824219 181.5625 133.441406 187.496094 133.441406 C 193.429688 133.441406 199.117188 135.824219 203.28125 140.050781 Z M 203.28125 140.050781 " clip-rule="nonzero"/></clipPath><clipPath id="509171b840"><path d="M 259 133.296875 L 366 133.296875 L 366 241.695312 L 259 241.695312 Z M 259 133.296875 " clip-rule="nonzero"/></clipPath><clipPath id="e21f24a63c"><path d="M 328.285156 140.054688 L 359.214844 171.464844 C 367.972656 180.363281 367.972656 194.636719 359.214844 203.53125 L 328.285156 234.945312 C 324.121094 239.175781 318.433594 241.558594 312.5 241.558594 C 306.566406 241.558594 300.878906 239.175781 296.714844 234.945312 L 265.785156 203.53125 C 257.027344 194.636719 257.027344 180.363281 265.785156 171.464844 L 296.714844 140.054688 C 300.878906 135.824219 306.566406 133.441406 312.5 133.441406 C 318.433594 133.441406 324.121094 135.824219 328.285156 140.054688 Z M 328.285156 140.054688 " clip-rule="nonzero"/></clipPath><clipPath id="c279956933"><path d="M 196.289062 196.777344 L 303.710938 196.777344 L 303.710938 305.175781 L 196.289062 305.175781 Z M 196.289062 196.777344 " clip-rule="nonzero"/></clipPath><clipPath id="a68c52b66f"><path d="M 265.785156 203.535156 L 296.714844 234.945312 C 305.472656 243.84375 305.472656 258.117188 296.714844 267.011719 L 265.785156 298.425781 C 261.621094 302.65625 255.933594 305.039062 250 305.039062 C 244.066406 305.039062 238.378906 302.65625 234.214844 298.425781 L 203.285156 267.011719 C 194.527344 258.117188 194.527344 243.84375 203.285156 234.945312 L 234.214844 203.535156 C 238.378906 199.304688 244.066406 196.921875 250 196.921875 C 255.933594 196.921875 261.621094 199.304688 265.785156 203.535156 Z M 265.785156 203.535156 " clip-rule="nonzero"/></clipPath></defs><g clip-path="url(#402f7cf0bd)"><g clip-path="url(#845ceaea24)"><path fill="#8f6e8b" d="M 62.5 60.539062 L 187.5 60.539062 L 187.5 187.492188 L 62.5 187.492188 Z M 62.5 60.539062 " fill-opacity="1" fill-rule="nonzero"/></g></g><g clip-path="url(#662af78964)"><g clip-path="url(#63388819a4)"><path fill="#25a0eb" d="M 0 124.019531 L 125 124.019531 L 125 250.972656 L 0 250.972656 Z M 0 124.019531 " fill-opacity="1" fill-rule="nonzero"/></g></g><g clip-path="url(#c0b881b291)"><g clip-path="url(#836f0fcf2e)"><path fill="#fc6467" d="M 62.5 187.5 L 187.5 187.5 L 187.5 314.453125 L 62.5 314.453125 Z M 62.5 187.5 " fill-opacity="1" fill-rule="nonzero"/></g></g><g clip-path="url(#975d7da1d2)"><g clip-path="url(#fa2aa1e7fe)"><path fill="#ab6176" d="M 187.5 60.539062 L 312.5 60.539062 L 312.5 187.492188 L 187.5 187.492188 Z M 187.5 60.539062 " fill-opacity="1" fill-rule="nonzero"/></g></g><g clip-path="url(#0cbf515392)"><g clip-path="url(#6af47a9c47)"><path fill="#ffffff" d="M 125 124.019531 L 250 124.019531 L 250 250.972656 L 125 250.972656 Z M 125 124.019531 " fill-opacity="1" fill-rule="nonzero"/></g></g><g clip-path="url(#adda8b0e41)"><g clip-path="url(#68dc31e522)"><path stroke-linecap="butt" transform="matrix(0.75, 0, 0, 0.75, 125.001721, 124.019641)" fill="none" stroke-linejoin="miter" d="M 104.372712 21.374854 L 145.60709 63.255066 C 157.284174 75.114441 157.284174 94.150901 145.60709 106.010277 L 104.372712 147.890488 C 98.820628 153.525905 91.237295 156.702988 83.325836 156.702988 C 75.414377 156.702988 67.831043 153.525905 62.278959 147.890488 L 21.044582 106.010277 C 9.367497 94.150901 9.367497 75.114441 21.044582 63.255066 L 62.278959 21.374854 C 67.831043 15.739437 75.414377 12.562354 83.325836 12.562354 C 91.237295 12.562354 98.820628 15.739437 104.372712 21.374854 Z M 104.372712 21.374854 " stroke="#00bf63" stroke-width="26" stroke-opacity="1" stroke-miterlimit="4"/></g></g><g clip-path="url(#509171b840)"><g clip-path="url(#e21f24a63c)"><path fill="#ff914d" d="M 250 124.019531 L 375 124.019531 L 375 250.972656 L 250 250.972656 Z M 250 124.019531 " fill-opacity="1" fill-rule="nonzero"/></g></g><g clip-path="url(#c279956933)"><g clip-path="url(#a68c52b66f)"><path fill="#b886fb" d="M 187.5 187.5 L 312.5 187.5 L 312.5 314.453125 L 187.5 314.453125 Z M 187.5 187.5 " fill-opacity="1" fill-rule="nonzero"/></g></g></svg>