<svg xmlns="http://www.w3.org/2000/svg" xmlns:xlink="http://www.w3.org/1999/xlink" width="500" zoomAndPan="magnify" viewBox="0 0 375 374.999991" height="500" preserveAspectRatio="xMidYMid meet" version="1.0"><defs><clipPath id="c19d9f5b3d"><path d="M 80.078125 110 L 169.914062 110 L 169.914062 201 L 80.078125 201 Z M 80.078125 110 " clip-rule="nonzero"/></clipPath><clipPath id="2820d99e4d"><path d="M 156.242188 124.015625 C 173.578125 141.625 173.578125 169.882812 156.242188 187.492188 C 148 195.863281 136.746094 200.578125 124.996094 200.578125 C 113.246094 200.578125 101.992188 195.863281 93.75 187.492188 C 76.414062 169.882812 76.414062 141.625 93.75 124.015625 C 101.992188 115.644531 113.246094 110.929688 124.996094 110.929688 C 136.746094 110.929688 148 115.644531 156.242188 124.015625 Z M 156.242188 124.015625 " clip-rule="nonzero"/></clipPath><clipPath id="54872edde3"><path d="M 18 174 L 107 174 L 107 265 L 18 265 Z M 18 174 " clip-rule="nonzero"/></clipPath><clipPath id="c02805f3ac"><path d="M 93.742188 187.496094 C 111.078125 205.105469 111.078125 233.363281 93.742188 250.972656 C 85.5 259.34375 74.246094 264.058594 62.496094 264.058594 C 50.746094 264.058594 39.492188 259.34375 31.25 250.972656 C 13.914062 233.363281 13.914062 205.105469 31.25 187.496094 C 39.492188 179.125 50.746094 174.410156 62.496094 174.410156 C 74.246094 174.410156 85.5 179.125 93.742188 187.496094 Z M 93.742188 187.496094 " clip-rule="nonzero"/></clipPath><clipPath id="31b1c2ad9a"><path d="M 205.078125 110 L 294.914062 110 L 294.914062 201 L 205.078125 201 Z M 205.078125 110 " clip-rule="nonzero"/></clipPath><clipPath id="10cd699e67"><path d="M 281.242188 124.015625 C 298.578125 141.625 298.578125 169.882812 281.242188 187.492188 C 273 195.863281 261.746094 200.578125 249.996094 200.578125 C 238.246094 200.578125 226.992188 195.863281 218.75 187.492188 C 201.414062 169.882812 201.414062 141.625 218.75 124.015625 C 226.992188 115.644531 238.246094 110.929688 249.996094 110.929688 C 261.746094 110.929688 273 115.644531 281.242188 124.015625 Z M 281.242188 124.015625 " clip-rule="nonzero"/></clipPath><clipPath id="c8e5d42724"><path d="M 268 174 L 357 174 L 357 265 L 268 265 Z M 268 174 " clip-rule="nonzero"/></clipPath><clipPath id="7199975a5a"><path d="M 343.742188 187.496094 C 361.078125 205.105469 361.078125 233.363281 343.742188 250.972656 C 335.5 259.34375 324.246094 264.058594 312.496094 264.058594 C 300.746094 264.058594 289.492188 259.34375 281.25 250.972656 C 263.914062 233.363281 263.914062 205.105469 281.25 187.496094 C 289.492188 179.125 300.746094 174.410156 312.496094 174.410156 C 324.246094 174.410156 335.5 179.125 343.742188 187.496094 Z M 343.742188 187.496094 " clip-rule="nonzero"/></clipPath><clipPath id="c47fce4801"><path d="M 143 172 L 232 172 L 232 263 L 143 263 Z M 143 172 " clip-rule="nonzero"/></clipPath><clipPath id="15393346b9"><path d="M 218.742188 185.996094 C 236.078125 203.605469 236.078125 231.863281 218.742188 249.472656 C 210.5 257.84375 199.246094 262.558594 187.496094 262.558594 C 175.746094 262.558594 164.492188 257.84375 156.25 249.472656 C 138.914062 231.863281 138.914062 203.605469 156.25 185.996094 C 164.492188 177.625 175.746094 172.910156 187.496094 172.910156 C 199.246094 172.910156 210.5 177.625 218.742188 185.996094 Z M 218.742188 185.996094 " clip-rule="nonzero"/></clipPath></defs><g clip-path="url(#c19d9f5b3d)"><g clip-path="url(#2820d99e4d)"><path stroke-linecap="butt" transform="matrix(0.75, 0, 0, 0.75, 62.501727, 92.279466)" fill="none" stroke-linejoin="miter" d="M 124.987289 42.314882 C 148.101874 65.79405 148.101874 103.471136 124.987289 126.950304 C 113.997705 138.111763 98.992496 144.398222 83.325828 144.398222 C 67.65916 144.398222 52.653951 138.111763 41.664367 126.950304 C 18.549782 103.471136 18.549782 65.79405 41.664367 42.314882 C 52.653951 31.153422 67.65916 24.866964 83.325828 24.866964 C 98.992496 24.866964 113.997705 31.153422 124.987289 42.314882 Z M 124.987289 42.314882 " stroke="#ab6176" stroke-width="26" stroke-opacity="1" stroke-miterlimit="4"/></g></g><g clip-path="url(#54872edde3)"><g clip-path="url(#c02805f3ac)"><path stroke-linecap="butt" transform="matrix(0.75, 0, 0, 0.75, 0.00172565, 155.759872)" fill="none" stroke-linejoin="miter" d="M 124.987291 42.314965 C 148.101876 65.794133 148.101876 103.471219 124.987291 126.950387 C 113.997707 138.111846 98.992497 144.398305 83.32583 144.398305 C 67.659162 144.398305 52.653953 138.111846 41.664369 126.950387 C 18.549784 103.471219 18.549784 65.794133 41.664369 42.314965 C 52.653953 31.153506 67.659162 24.867047 83.32583 24.867047 C 98.992497 24.867047 113.997707 31.153506 124.987291 42.314965 Z M 124.987291 42.314965 " stroke="#ff914d" stroke-width="26" stroke-opacity="1" stroke-miterlimit="4"/></g></g><g clip-path="url(#31b1c2ad9a)"><g clip-path="url(#10cd699e67)"><path stroke-linecap="butt" transform="matrix(0.75, 0, 0, 0.75, 187.501706, 92.279466)" fill="none" stroke-linejoin="miter" d="M 124.987317 42.314882 C 148.101902 65.79405 148.101902 103.471136 124.987317 126.950304 C 113.997733 138.111763 98.992524 144.398222 83.325856 144.398222 C 67.659188 144.398222 52.653979 138.111763 41.664395 126.950304 C 18.54981 103.471136 18.54981 65.79405 41.664395 42.314882 C 52.653979 31.153422 67.659188 24.866964 83.325856 24.866964 C 98.992524 24.866964 113.997733 31.153422 124.987317 42.314882 Z M 124.987317 42.314882 " stroke="#fc6467" stroke-width="26" stroke-opacity="1" stroke-miterlimit="4"/></g></g><g clip-path="url(#c8e5d42724)"><g clip-path="url(#7199975a5a)"><path stroke-linecap="butt" transform="matrix(0.75, 0, 0, 0.75, 250.001736, 155.759872)" fill="none" stroke-linejoin="miter" d="M 124.987277 42.314965 C 148.101862 65.794133 148.101862 103.471219 124.987277 126.950387 C 113.997693 138.111846 98.992483 144.398305 83.325816 144.398305 C 67.659148 144.398305 52.653939 138.111846 41.664355 126.950387 C 18.54977 103.471219 18.54977 65.794133 41.664355 42.314965 C 52.653939 31.153506 67.659148 24.867047 83.325816 24.867047 C 98.992483 24.867047 113.997693 31.153506 124.987277 42.314965 Z M 124.987277 42.314965 " stroke="#058ef5" stroke-width="26" stroke-opacity="1" stroke-miterlimit="4"/></g></g><g clip-path="url(#c47fce4801)"><g clip-path="url(#15393346b9)"><path stroke-linecap="butt" transform="matrix(0.75, 0, 0, 0.75, 125.001721, 154.259872)" fill="none" stroke-linejoin="miter" d="M 124.987297 42.314965 C 148.101882 65.794133 148.101882 103.471219 124.987297 126.950387 C 113.997713 138.111846 98.992503 144.398305 83.325836 144.398305 C 67.659168 144.398305 52.653959 138.111846 41.664375 126.950387 C 18.54979 103.471219 18.54979 65.794133 41.664375 42.314965 C 52.653959 31.153506 67.659168 24.867047 83.325836 24.867047 C 98.992503 24.867047 113.997713 31.153506 124.987297 42.314965 Z M 124.987297 42.314965 " stroke="#b23dd4" stroke-width="26" stroke-opacity="1" stroke-miterlimit="4"/></g></g></svg>