<svg xmlns="http://www.w3.org/2000/svg" xmlns:xlink="http://www.w3.org/1999/xlink" width="500" zoomAndPan="magnify" viewBox="0 0 375 374.999991" height="500" preserveAspectRatio="xMidYMid meet" version="1.0"><defs><clipPath id="cac526a46e"><path d="M 98 79 L 187 79 L 187 169 L 98 169 Z M 98 79 " clip-rule="nonzero"/></clipPath><clipPath id="cd38787bbf"><path d="M 173.867188 92.277344 C 191.203125 109.882812 191.203125 138.144531 173.867188 155.75 C 165.625 164.121094 154.371094 168.835938 142.621094 168.835938 C 130.871094 168.835938 119.617188 164.121094 111.375 155.75 C 94.039062 138.144531 94.039062 109.882812 111.375 92.277344 C 119.617188 83.90625 130.871094 79.191406 142.621094 79.191406 C 154.371094 79.191406 165.625 83.90625 173.867188 92.277344 Z M 173.867188 92.277344 " clip-rule="nonzero"/></clipPath><clipPath id="e8e4be3a26"><path d="M 35.203125 142 L 125 142 L 125 233 L 35.203125 233 Z M 35.203125 142 " clip-rule="nonzero"/></clipPath><clipPath id="11c233d3a2"><path d="M 111.367188 155.757812 C 128.703125 173.363281 128.703125 201.625 111.367188 219.230469 C 103.125 227.601562 91.871094 232.316406 80.121094 232.316406 C 68.371094 232.316406 57.117188 227.601562 48.875 219.230469 C 31.539062 201.625 31.539062 173.363281 48.875 155.757812 C 57.117188 147.386719 68.371094 142.671875 80.121094 142.671875 C 91.871094 142.671875 103.125 147.386719 111.367188 155.757812 Z M 111.367188 155.757812 " clip-rule="nonzero"/></clipPath><clipPath id="cac60ae9b4"><path d="M 98 206 L 187 206 L 187 296 L 98 296 Z M 98 206 " clip-rule="nonzero"/></clipPath><clipPath id="874d7c36e0"><path d="M 173.867188 219.238281 C 191.203125 236.84375 191.203125 265.105469 173.867188 282.710938 C 165.625 291.082031 154.371094 295.796875 142.621094 295.796875 C 130.871094 295.796875 119.617188 291.082031 111.375 282.710938 C 94.039062 265.105469 94.039062 236.84375 111.375 219.238281 C 119.617188 210.867188 130.871094 206.152344 142.621094 206.152344 C 154.371094 206.152344 165.625 210.867188 173.867188 219.238281 Z M 173.867188 219.238281 " clip-rule="nonzero"/></clipPath><clipPath id="c99f2d2806"><path d="M 188 79 L 277 79 L 277 169 L 188 169 Z M 188 79 " clip-rule="nonzero"/></clipPath><clipPath id="e53b2d7abb"><path d="M 263.617188 92.277344 C 280.953125 109.882812 280.953125 138.144531 263.617188 155.75 C 255.375 164.121094 244.121094 168.835938 232.371094 168.835938 C 220.621094 168.835938 209.367188 164.121094 201.125 155.75 C 183.789062 138.144531 183.789062 109.882812 201.125 92.277344 C 209.367188 83.90625 220.621094 79.191406 232.371094 79.191406 C 244.121094 79.191406 255.375 83.90625 263.617188 92.277344 Z M 263.617188 92.277344 " clip-rule="nonzero"/></clipPath><clipPath id="2864d062bf"><path d="M 250 142 L 339.789062 142 L 339.789062 233 L 250 233 Z M 250 142 " clip-rule="nonzero"/></clipPath><clipPath id="be00e7f0c5"><path d="M 326.117188 155.757812 C 343.453125 173.363281 343.453125 201.625 326.117188 219.230469 C 317.875 227.601562 306.621094 232.316406 294.871094 232.316406 C 283.121094 232.316406 271.867188 227.601562 263.625 219.230469 C 246.289062 201.625 246.289062 173.363281 263.625 155.757812 C 271.867188 147.386719 283.121094 142.671875 294.871094 142.671875 C 306.621094 142.671875 317.875 147.386719 326.117188 155.757812 Z M 326.117188 155.757812 " clip-rule="nonzero"/></clipPath><clipPath id="24759231ff"><path d="M 188 206 L 277 206 L 277 296 L 188 296 Z M 188 206 " clip-rule="nonzero"/></clipPath><clipPath id="f5edb252ea"><path d="M 263.617188 219.238281 C 280.953125 236.84375 280.953125 265.105469 263.617188 282.710938 C 255.375 291.082031 244.121094 295.796875 232.371094 295.796875 C 220.621094 295.796875 209.367188 291.082031 201.125 282.710938 C 183.789062 265.105469 183.789062 236.84375 201.125 219.238281 C 209.367188 210.867188 220.621094 206.152344 232.371094 206.152344 C 244.121094 206.152344 255.375 210.867188 263.617188 219.238281 Z M 263.617188 219.238281 " clip-rule="nonzero"/></clipPath></defs><g clip-path="url(#cac526a46e)"><g clip-path="url(#cd38787bbf)"><path stroke-linecap="butt" transform="matrix(0.75, 0, 0, 0.75, 80.126726, 60.539293)" fill="none" stroke-linejoin="miter" d="M 124.987291 42.317404 C 148.101876 65.791364 148.101876 103.473658 124.987291 126.947618 C 113.997707 138.109077 98.992497 144.395536 83.32583 144.395536 C 67.659162 144.395536 52.653953 138.109077 41.664369 126.947618 C 18.549784 103.473658 18.549784 65.791364 41.664369 42.317404 C 52.653953 31.155945 67.659162 24.869486 83.32583 24.869486 C 98.992497 24.869486 113.997707 31.155945 124.987291 42.317404 Z M 124.987291 42.317404 " stroke="#b23dd4" stroke-width="26" stroke-opacity="1" stroke-miterlimit="4"/></g></g><g clip-path="url(#e8e4be3a26)"><g clip-path="url(#11c233d3a2)"><path stroke-linecap="butt" transform="matrix(0.75, 0, 0, 0.75, 17.626725, 124.019757)" fill="none" stroke-linejoin="miter" d="M 124.987292 42.317411 C 148.101877 65.79137 148.101877 103.473665 124.987292 126.947624 C 113.997708 138.109084 98.992499 144.395542 83.325831 144.395542 C 67.659163 144.395542 52.653954 138.109084 41.66437 126.947624 C 18.549785 103.473665 18.549785 65.79137 41.66437 42.317411 C 52.653954 31.155952 67.659163 24.869493 83.325831 24.869493 C 98.992499 24.869493 113.997708 31.155952 124.987292 42.317411 Z M 124.987292 42.317411 " stroke="#ff914d" stroke-width="26" stroke-opacity="1" stroke-miterlimit="4"/></g></g><g clip-path="url(#cac60ae9b4)"><g clip-path="url(#874d7c36e0)"><path stroke-linecap="butt" transform="matrix(0.75, 0, 0, 0.75, 80.126726, 187.499988)" fill="none" stroke-linejoin="miter" d="M 124.987291 42.317728 C 148.101876 65.791687 148.101876 103.473982 124.987291 126.947941 C 113.997707 138.1094 98.992497 144.395859 83.32583 144.395859 C 67.659162 144.395859 52.653953 138.1094 41.664369 126.947941 C 18.549784 103.473982 18.549784 65.791687 41.664369 42.317728 C 52.653953 31.156268 67.659162 24.86981 83.32583 24.86981 C 98.992497 24.86981 113.997707 31.156268 124.987291 42.317728 Z M 124.987291 42.317728 " stroke="#8f6e8b" stroke-width="26" stroke-opacity="1" stroke-miterlimit="4"/></g></g><g clip-path="url(#c99f2d2806)"><g clip-path="url(#e53b2d7abb)"><path stroke-linecap="butt" transform="matrix(0.75, 0, 0, 0.75, 169.876707, 60.539293)" fill="none" stroke-linejoin="miter" d="M 124.987316 42.317404 C 148.1019 65.791364 148.1019 103.473658 124.987316 126.947618 C 113.997732 138.109077 98.992522 144.395536 83.325855 144.395536 C 67.659187 144.395536 52.653978 138.109077 41.664393 126.947618 C 18.549809 103.473658 18.549809 65.791364 41.664393 42.317404 C 52.653978 31.155945 67.659187 24.869486 83.325855 24.869486 C 98.992522 24.869486 113.997732 31.155945 124.987316 42.317404 Z M 124.987316 42.317404 " stroke="#fc6467" stroke-width="26" stroke-opacity="1" stroke-miterlimit="4"/></g></g><g clip-path="url(#2864d062bf)"><g clip-path="url(#be00e7f0c5)"><path stroke-linecap="butt" transform="matrix(0.75, 0, 0, 0.75, 232.376708, 124.019757)" fill="none" stroke-linejoin="miter" d="M 124.987314 42.317411 C 148.101898 65.79137 148.101898 103.473665 124.987314 126.947624 C 113.99773 138.109084 98.99252 144.395542 83.325853 144.395542 C 67.659185 144.395542 52.653976 138.109084 41.664391 126.947624 C 18.549807 103.473665 18.549807 65.79137 41.664391 42.317411 C 52.653976 31.155952 67.659185 24.869493 83.325853 24.869493 C 98.99252 24.869493 113.99773 31.155952 124.987314 42.317411 Z M 124.987314 42.317411 " stroke="#058ef5" stroke-width="26" stroke-opacity="1" stroke-miterlimit="4"/></g></g><g clip-path="url(#24759231ff)"><g clip-path="url(#f5edb252ea)"><path stroke-linecap="butt" transform="matrix(0.75, 0, 0, 0.75, 169.876707, 187.499988)" fill="none" stroke-linejoin="miter" d="M 124.987316 42.317728 C 148.1019 65.791687 148.1019 103.473982 124.987316 126.947941 C 113.997732 138.1094 98.992522 144.395859 83.325855 144.395859 C 67.659187 144.395859 52.653978 138.1094 41.664393 126.947941 C 18.549809 103.473982 18.549809 65.791687 41.664393 42.317728 C 52.653978 31.156268 67.659187 24.86981 83.325855 24.86981 C 98.992522 24.86981 113.997732 31.156268 124.987316 42.317728 Z M 124.987316 42.317728 " stroke="#ab6176" stroke-width="26" stroke-opacity="1" stroke-miterlimit="4"/></g></g></svg>