<?xml version="1.0" encoding="UTF-8"?>
<svg xmlns="http://www.w3.org/2000/svg" id="Layer_1" data-name="Layer 1" viewBox="0 0 24 24">
  <path d="m22.657,7.407L14.157.756c-1.271-.994-3.043-.992-4.314,0L1.344,7.407c-.854.668-1.344,1.673-1.344,2.757v13.823h24v-13.823c0-1.084-.489-2.089-1.343-2.757Zm-1.657,13.58h-4v-2.987c0-1.105-.895-2-2-2h-6c-1.105,0-2,.895-2,2v2.987H3v-10.823c0-.155.07-.299.192-.394L11.692,3.119c.182-.143.436-.143.615,0l8.501,6.651c.121.095.191.238.191.394v10.823Zm-6-9.987c0,1.655-1.345,3-3,3s-3-1.345-3-3,1.345-3,3-3,3,1.345,3,3Z"/>
</svg>
